<svg version="1.1" viewBox="0.0 0.0 960.0 720.0" fill="none" stroke="none" stroke-linecap="square" stroke-miterlimit="10" xmlns:xlink="http://www.w3.org/1999/xlink" xmlns="http://www.w3.org/2000/svg"><clipPath id="p.0"><path d="m0 0l960.0 0l0 720.0l-960.0 0l0 -720.0z" clip-rule="nonzero"/></clipPath><g clip-path="url(#p.0)"><path fill="#000000" fill-opacity="0.0" d="m0 0l960.0 0l0 720.0l-960.0 0z" fill-rule="evenodd"/><path fill="#000000" fill-opacity="0.0" d="m96.031494 340.53806l0 0c0 -130.04349 171.90857 -235.46457 383.9685 -235.46457l0 0c212.05994 0 383.9685 105.421074 383.9685 235.46457l0 0c0 130.04349 -171.90857 235.46457 -383.9685 235.46457l0 0c-212.05994 0 -383.9685 -105.42108 -383.9685 -235.46457z" fill-rule="evenodd"/><path stroke="#000000" stroke-width="1.0" stroke-linejoin="round" stroke-linecap="butt" d="m96.031494 340.53806l0 0c0 -130.04349 171.90857 -235.46457 383.9685 -235.46457l0 0c212.05994 0 383.9685 105.421074 383.9685 235.46457l0 0c0 130.04349 -171.90857 235.46457 -383.9685 235.46457l0 0c-212.05994 0 -383.9685 -105.42108 -383.9685 -235.46457z" fill-rule="evenodd"/><path fill="#cfe2f3" d="m74.99213 360.0l0 0c0 -31.815094 36.536385 -57.606293 81.60629 -57.606293l0 0c45.069916 0 81.60631 25.791199 81.60631 57.606293l0 0c0 31.815094 -36.536392 57.606293 -81.60631 57.606293l0 0c-45.06991 0 -81.60629 -25.791199 -81.60629 -57.606293z" fill-rule="evenodd"/><path stroke="#000000" stroke-width="1.0" stroke-linejoin="round" stroke-linecap="butt" d="m74.99213 360.0l0 0c0 -31.815094 36.536385 -57.606293 81.60629 -57.606293l0 0c45.069916 0 81.60631 25.791199 81.60631 57.606293l0 0c0 31.815094 -36.536392 57.606293 -81.60631 57.606293l0 0c-45.06991 0 -81.60629 -25.791199 -81.60629 -57.606293z" fill-rule="evenodd"/><path fill="#cfe2f3" d="m164.73753 323.24408l0 0c0 -5.3053894 4.300888 -9.606293 9.606293 -9.606293l0 0c2.54776 0 4.99115 1.012085 6.792679 2.8136292c1.8015442 1.8015442 2.8136292 4.244934 2.8136292 6.7926636l0 0c0 5.30542 -4.300888 9.606323 -9.606308 9.606323l0 0c-5.3054047 0 -9.606293 -4.3009033 -9.606293 -9.606323z" fill-rule="evenodd"/><path stroke="#000000" stroke-width="1.0" stroke-linejoin="round" stroke-linecap="butt" d="m164.73753 323.24408l0 0c0 -5.3053894 4.300888 -9.606293 9.606293 -9.606293l0 0c2.54776 0 4.99115 1.012085 6.792679 2.8136292c1.8015442 1.8015442 2.8136292 4.244934 2.8136292 6.7926636l0 0c0 5.30542 -4.300888 9.606323 -9.606308 9.606323l0 0c-5.3054047 0 -9.606293 -4.3009033 -9.606293 -9.606323z" fill-rule="evenodd"/><path fill="#cfe2f3" d="m111.514565 331.86142l0 0c-1.609024 -5.053192 1.1830292 -10.4539795 6.2362213 -12.063019l0 0c2.4266205 -0.77267456 5.0608063 -0.54971313 7.323059 0.619812c2.2622452 1.1694946 3.967247 3.1897888 4.739937 5.6164246l0 0c1.6090088 5.053192 -1.1830444 10.4539795 -6.236229 12.062988l0 0c-5.0531845 1.6090088 -10.453972 -1.1830444 -12.062988 -6.236206z" fill-rule="evenodd"/><path stroke="#000000" stroke-width="1.0" stroke-linejoin="round" stroke-linecap="butt" d="m111.514565 331.86142l0 0c-1.609024 -5.053192 1.1830292 -10.4539795 6.2362213 -12.063019l0 0c2.4266205 -0.77267456 5.0608063 -0.54971313 7.323059 0.619812c2.2622452 1.1694946 3.967247 3.1897888 4.739937 5.6164246l0 0c1.6090088 5.053192 -1.1830444 10.4539795 -6.236229 12.062988l0 0c-5.0531845 1.6090088 -10.453972 -1.1830444 -12.062988 -6.236206z" fill-rule="evenodd"/><path fill="#cfe2f3" d="m96.031494 372.56693l0 0c0 -5.30542 4.300888 -9.606293 9.6063 -9.606293l0 0c2.5477524 0 4.99115 1.012085 6.792679 2.8136292c1.8015289 1.8015137 2.8136215 4.2449036 2.8136215 6.7926636l0 0c0 5.30542 -4.300888 9.606293 -9.6063 9.606293l0 0c-5.3054123 0 -9.6063 -4.300873 -9.6063 -9.606293z" fill-rule="evenodd"/><path stroke="#000000" stroke-width="1.0" stroke-linejoin="round" stroke-linecap="butt" d="m96.031494 372.56693l0 0c0 -5.30542 4.300888 -9.606293 9.6063 -9.606293l0 0c2.5477524 0 4.99115 1.012085 6.792679 2.8136292c1.8015289 1.8015137 2.8136215 4.2449036 2.8136215 6.7926636l0 0c0 5.30542 -4.300888 9.606293 -9.6063 9.606293l0 0c-5.3054123 0 -9.6063 -4.300873 -9.6063 -9.606293z" fill-rule="evenodd"/><path fill="#cfe2f3" d="m135.26547 399.02423l0 0c1.2524261 -5.1575623 6.4487457 -8.323303 11.606308 -7.070862l0 0c2.4767456 0.6014404 4.6131287 2.1621094 5.939163 4.3387146c1.3260498 2.1766052 1.733139 4.7908325 1.1316986 7.267578l0 0c-1.2524261 5.1575623 -6.4487457 8.323303 -11.606308 7.070862l0 0c-5.157547 -1.2524109 -8.323288 -6.4487305 -7.070862 -11.606293z" fill-rule="evenodd"/><path stroke="#000000" stroke-width="1.0" stroke-linejoin="round" stroke-linecap="butt" d="m135.26547 399.02423l0 0c1.2524261 -5.1575623 6.4487457 -8.323303 11.606308 -7.070862l0 0c2.4767456 0.6014404 4.6131287 2.1621094 5.939163 4.3387146c1.3260498 2.1766052 1.733139 4.7908325 1.1316986 7.267578l0 0c-1.2524261 5.1575623 -6.4487457 8.323303 -11.606308 7.070862l0 0c-5.157547 -1.2524109 -8.323288 -6.4487305 -7.070862 -11.606293z" fill-rule="evenodd"/><path fill="#cfe2f3" d="m187.2061 385.63123l0 0c1.8351593 -4.9749146 7.3558044 -7.5202026 12.330704 -5.6850586l0 0c2.389038 0.8812866 4.3301544 2.6755066 5.3963013 4.9879456c1.0661469 2.3124695 1.1700134 4.9537354 0.28874207 7.3427734l0 0c-1.835144 4.9749146 -7.355789 7.5202026 -12.330704 5.6850586l0 0c-4.9749146 -1.8351746 -7.5201874 -7.3558044 -5.6850433 -12.330719z" fill-rule="evenodd"/><path stroke="#000000" stroke-width="1.0" stroke-linejoin="round" stroke-linecap="butt" d="m187.2061 385.63123l0 0c1.8351593 -4.9749146 7.3558044 -7.5202026 12.330704 -5.6850586l0 0c2.389038 0.8812866 4.3301544 2.6755066 5.3963013 4.9879456c1.0661469 2.3124695 1.1700134 4.9537354 0.28874207 7.3427734l0 0c-1.835144 4.9749146 -7.355789 7.5202026 -12.330704 5.6850586l0 0c-4.9749146 -1.8351746 -7.5201874 -7.3558044 -5.6850433 -12.330719z" fill-rule="evenodd"/><path fill="#cfe2f3" d="m197.30708 346.8924l0 0c0 -5.30542 4.300888 -9.606293 9.606308 -9.606293l0 0c2.5477448 0 4.99115 1.012085 6.792679 2.8135986c1.8015289 1.8015442 2.813614 4.244934 2.813614 6.792694l0 0c0 5.30542 -4.300888 9.606293 -9.606293 9.606293l0 0c-5.30542 0 -9.606308 -4.300873 -9.606308 -9.606293z" fill-rule="evenodd"/><path stroke="#000000" stroke-width="1.0" stroke-linejoin="round" stroke-linecap="butt" d="m197.30708 346.8924l0 0c0 -5.30542 4.300888 -9.606293 9.606308 -9.606293l0 0c2.5477448 0 4.99115 1.012085 6.792679 2.8135986c1.8015289 1.8015442 2.813614 4.244934 2.813614 6.792694l0 0c0 5.30542 -4.300888 9.606293 -9.606293 9.606293l0 0c-5.30542 0 -9.606308 -4.300873 -9.606308 -9.606293z" fill-rule="evenodd"/><path fill="#000000" fill-opacity="0.0" d="m129.81378 326.03464l34.929123 -2.8031616" fill-rule="evenodd"/><path stroke="#000000" stroke-width="1.0" stroke-linejoin="round" stroke-linecap="butt" d="m129.81378 326.03464l34.929123 -2.8031616" fill-rule="evenodd"/><path fill="#000000" fill-opacity="0.0" d="m105.637794 362.96063l10.614174 -25.480316" fill-rule="evenodd"/><path stroke="#000000" stroke-width="1.0" stroke-linejoin="round" stroke-linecap="butt" d="m105.637794 362.96063l10.614174 -25.480316" fill-rule="evenodd"/><path fill="#000000" fill-opacity="0.0" d="m112.43047 379.35962l22.834648 19.653534" fill-rule="evenodd"/><path stroke="#000000" stroke-width="1.0" stroke-linejoin="round" stroke-linecap="butt" d="m112.43047 379.35962l22.834648 19.653534" fill-rule="evenodd"/><path fill="#000000" fill-opacity="0.0" d="m153.94264 403.55966l33.543304 -10.582672" fill-rule="evenodd"/><path stroke="#000000" stroke-width="1.0" stroke-linejoin="round" stroke-linecap="butt" d="m153.94264 403.55966l33.543304 -10.582672" fill-rule="evenodd"/><path fill="#000000" fill-opacity="0.0" d="m199.5368 379.94617l7.3700867 -23.433044" fill-rule="evenodd"/><path stroke="#000000" stroke-width="1.0" stroke-linejoin="round" stroke-linecap="butt" d="m199.5368 379.94617l7.3700867 -23.433044" fill-rule="evenodd"/><path fill="#cfe2f3" d="m422.7533 544.7743l0 0c0 -31.815125 36.536377 -57.606323 81.60629 -57.606323l0 0c45.069916 0 81.60629 25.791199 81.60629 57.606323l0 0c0 31.815063 -36.536377 57.606262 -81.60629 57.606262l0 0c-45.069916 0 -81.60629 -25.791199 -81.60629 -57.606262z" fill-rule="evenodd"/><path stroke="#000000" stroke-width="1.0" stroke-linejoin="round" stroke-linecap="butt" d="m422.7533 544.7743l0 0c0 -31.815125 36.536377 -57.606323 81.60629 -57.606323l0 0c45.069916 0 81.60629 25.791199 81.60629 57.606323l0 0c0 31.815063 -36.536377 57.606262 -81.60629 57.606262l0 0c-45.069916 0 -81.60629 -25.791199 -81.60629 -57.606262z" fill-rule="evenodd"/><path fill="#cfe2f3" d="m462.56165 512.9922l0 0c-0.6001282 -5.27063 3.1860657 -10.029816 8.456696 -10.629944l0 0c2.5310364 -0.2881775 5.0729065 0.44088745 7.0664062 2.026825c1.9934998 1.5859375 3.2753296 3.8988342 3.563507 6.4298706l0 0c0.6001282 5.2705994 -3.1860657 10.029816 -8.456696 10.629913l0 0c-5.2705994 0.6001587 -10.029785 -3.1860352 -10.629913 -8.456665z" fill-rule="evenodd"/><path stroke="#000000" stroke-width="1.0" stroke-linejoin="round" stroke-linecap="butt" d="m462.56165 512.9922l0 0c-0.6001282 -5.27063 3.1860657 -10.029816 8.456696 -10.629944l0 0c2.5310364 -0.2881775 5.0729065 0.44088745 7.0664062 2.026825c1.9934998 1.5859375 3.2753296 3.8988342 3.563507 6.4298706l0 0c0.6001282 5.2705994 -3.1860657 10.029816 -8.456696 10.629913l0 0c-5.2705994 0.6001587 -10.029785 -3.1860352 -10.629913 -8.456665z" fill-rule="evenodd"/><path fill="#cfe2f3" d="m447.5223 556.9056l0 0c-2.6788025 -4.574829 -1.1417542 -10.455078 3.433075 -13.133911l0 0c2.1968994 -1.286377 4.81485 -1.6473999 7.2779236 -1.00354c2.4630737 0.6437988 4.569519 2.239746 5.8559265 4.4366455l0 0c2.6788025 4.574829 1.1417542 10.455078 -3.433075 13.13385l0 0c-4.574829 2.678772 -10.455048 1.1417847 -13.13385 -3.4330444z" fill-rule="evenodd"/><path stroke="#000000" stroke-width="1.0" stroke-linejoin="round" stroke-linecap="butt" d="m447.5223 556.9056l0 0c-2.6788025 -4.574829 -1.1417542 -10.455078 3.433075 -13.133911l0 0c2.1968994 -1.286377 4.81485 -1.6473999 7.2779236 -1.00354c2.4630737 0.6437988 4.569519 2.239746 5.8559265 4.4366455l0 0c2.6788025 4.574829 1.1417542 10.455078 -3.433075 13.13385l0 0c-4.574829 2.678772 -10.455048 1.1417847 -13.13385 -3.4330444z" fill-rule="evenodd"/><path fill="#cfe2f3" d="m488.55383 587.4481l0 0c-1.2263489 -5.1575317 1.9605408 -10.332703 7.118103 -11.559021l0 0c2.4767456 -0.5889282 5.0859985 -0.16986084 7.253723 1.1651001c2.1677551 1.3348999 3.7164307 3.4762573 4.3053284 5.953003l0 0c1.2263489 5.1575317 -1.9605408 10.332703 -7.118103 11.559021l0 0c-5.1575623 1.2263184 -10.332733 -1.9605103 -11.5590515 -7.118103z" fill-rule="evenodd"/><path stroke="#000000" stroke-width="1.0" stroke-linejoin="round" stroke-linecap="butt" d="m488.55383 587.4481l0 0c-1.2263489 -5.1575317 1.9605408 -10.332703 7.118103 -11.559021l0 0c2.4767456 -0.5889282 5.0859985 -0.16986084 7.253723 1.1651001c2.1677551 1.3348999 3.7164307 3.4762573 4.3053284 5.953003l0 0c1.2263489 5.1575317 -1.9605408 10.332703 -7.118103 11.559021l0 0c-5.1575623 1.2263184 -10.332733 -1.9605103 -11.5590515 -7.118103z" fill-rule="evenodd"/><path fill="#cfe2f3" d="m538.9005 577.6388l0 0c-0.904541 -5.23584 2.6066895 -10.213562 7.8425293 -11.118103l0 0c2.5143433 -0.4343872 5.0982666 0.14782715 7.1832886 1.6185913c2.085083 1.4707642 3.5004272 3.7095947 3.9348145 6.223938l0 0c0.904541 5.235779 -2.6066895 10.213562 -7.8425293 11.118103l0 0c-5.23584 0.904541 -10.213562 -2.6066895 -11.118103 -7.8425293z" fill-rule="evenodd"/><path stroke="#000000" stroke-width="1.0" stroke-linejoin="round" stroke-linecap="butt" d="m538.9005 577.6388l0 0c-0.904541 -5.23584 2.6066895 -10.213562 7.8425293 -11.118103l0 0c2.5143433 -0.4343872 5.0982666 0.14782715 7.1832886 1.6185913c2.085083 1.4707642 3.5004272 3.7095947 3.9348145 6.223938l0 0c0.904541 5.235779 -2.6066895 10.213562 -7.8425293 11.118103l0 0c-5.23584 0.904541 -10.213562 -2.6066895 -11.118103 -7.8425293z" fill-rule="evenodd"/><path fill="#cfe2f3" d="m552.6063 532.1417l0 0c0 -5.30542 4.3008423 -9.606262 9.606262 -9.606262l0 0c2.5477905 0 4.99115 1.012085 6.7926636 2.8135986c1.8015747 1.8015137 2.8136597 4.244934 2.8136597 6.7926636l0 0c0 5.30542 -4.3009033 9.606323 -9.606323 9.606323l0 0c-5.30542 0 -9.606262 -4.3009033 -9.606262 -9.606323z" fill-rule="evenodd"/><path stroke="#000000" stroke-width="1.0" stroke-linejoin="round" stroke-linecap="butt" d="m552.6063 532.1417l0 0c0 -5.30542 4.3008423 -9.606262 9.606262 -9.606262l0 0c2.5477905 0 4.99115 1.012085 6.7926636 2.8135986c1.8015747 1.8015137 2.8136597 4.244934 2.8136597 6.7926636l0 0c0 5.30542 -4.3009033 9.606323 -9.606323 9.606323l0 0c-5.30542 0 -9.606262 -4.3009033 -9.606262 -9.606323z" fill-rule="evenodd"/><path fill="#cfe2f3" d="m506.06567 504.72208l0 0c-1.5307617 -5.0792847 1.3459167 -10.437775 6.425171 -11.968506l0 0c2.439148 -0.7350769 5.0704346 -0.47113037 7.3149414 0.7338257c2.2445679 1.204956 3.918457 3.2521973 4.6535645 5.6913757l0 0c1.5307617 5.0792847 -1.3458862 10.437744 -6.425171 11.968506l0 0c-5.0792847 1.5307617 -10.437775 -1.3459167 -11.968506 -6.4252014z" fill-rule="evenodd"/><path stroke="#000000" stroke-width="1.0" stroke-linejoin="round" stroke-linecap="butt" d="m506.06567 504.72208l0 0c-1.5307617 -5.0792847 1.3459167 -10.437775 6.425171 -11.968506l0 0c2.439148 -0.7350769 5.0704346 -0.47113037 7.3149414 0.7338257c2.2445679 1.204956 3.918457 3.2521973 4.6535645 5.6913757l0 0c1.5307617 5.0792847 -1.3458862 10.437744 -6.425171 11.968506l0 0c-5.0792847 1.5307617 -10.437775 -1.3459167 -11.968506 -6.4252014z" fill-rule="evenodd"/><path fill="#000000" fill-opacity="0.0" d="m458.2333 542.7681l7.9055176 -23.338562" fill-rule="evenodd"/><path stroke="#000000" stroke-width="1.0" stroke-linejoin="round" stroke-linecap="butt" d="m458.2333 542.7681l7.9055176 -23.338562" fill-rule="evenodd"/><path fill="#000000" fill-opacity="0.0" d="m489.71893 580.1944l-29.070892 -19.84253" fill-rule="evenodd"/><path stroke="#000000" stroke-width="1.0" stroke-linejoin="round" stroke-linecap="butt" d="m489.71893 580.1944l-29.070892 -19.84253" fill-rule="evenodd"/><path fill="#000000" fill-opacity="0.0" d="m507.231 583.0072l31.685028 -5.35437" fill-rule="evenodd"/><path stroke="#000000" stroke-width="1.0" stroke-linejoin="round" stroke-linecap="butt" d="m507.231 583.0072l31.685028 -5.35437" fill-rule="evenodd"/><path fill="#000000" fill-opacity="0.0" d="m553.92633 568.1393l8.283447 -26.393677" fill-rule="evenodd"/><path stroke="#000000" stroke-width="1.0" stroke-linejoin="round" stroke-linecap="butt" d="m553.92633 568.1393l8.283447 -26.393677" fill-rule="evenodd"/><path fill="#000000" fill-opacity="0.0" d="m555.4199 525.34906l-31.685059 -18.86615" fill-rule="evenodd"/><path stroke="#000000" stroke-width="1.0" stroke-linejoin="round" stroke-linecap="butt" d="m555.4199 525.34906l-31.685059 -18.86615" fill-rule="evenodd"/><path fill="#cfe2f3" d="m655.1286 461.82416l0 0c0 -31.815094 36.536377 -57.606323 81.60632 -57.606323l0 0c45.069885 0 81.60626 25.79123 81.60626 57.606323l0 0c0 31.815063 -36.536377 57.606262 -81.60626 57.606262l0 0c-45.069946 0 -81.60632 -25.791199 -81.60632 -57.606262z" fill-rule="evenodd"/><path stroke="#000000" stroke-width="1.0" stroke-linejoin="round" stroke-linecap="butt" d="m655.1286 461.82416l0 0c0 -31.815094 36.536377 -57.606323 81.60632 -57.606323l0 0c45.069885 0 81.60626 25.79123 81.60626 57.606323l0 0c0 31.815063 -36.536377 57.606262 -81.60626 57.606262l0 0c-45.069946 0 -81.60632 -25.791199 -81.60632 -57.606262z" fill-rule="evenodd"/><path fill="#cfe2f3" d="m695.421 427.77628l0 0c-0.50445557 -5.2793274 3.366333 -9.968018 8.64563 -10.472443l0 0c2.5352173 -0.24224854 5.062866 0.53253174 7.0267944 2.1539001c1.9639893 1.6213989 3.2034302 3.956543 3.4456787 6.4917603l0 0c0.50445557 5.2793274 -3.366394 9.967987 -8.645691 10.472443l0 0c-5.279297 0.50445557 -9.968018 -3.3663635 -10.472412 -8.64566z" fill-rule="evenodd"/><path stroke="#000000" stroke-width="1.0" stroke-linejoin="round" stroke-linecap="butt" d="m695.421 427.77628l0 0c-0.50445557 -5.2793274 3.366333 -9.968018 8.64563 -10.472443l0 0c2.5352173 -0.24224854 5.062866 0.53253174 7.0267944 2.1539001c1.9639893 1.6213989 3.2034302 3.956543 3.4456787 6.4917603l0 0c0.50445557 5.2793274 -3.366394 9.967987 -8.645691 10.472443l0 0c-5.279297 0.50445557 -9.968018 -3.3663635 -10.472412 -8.64566z" fill-rule="evenodd"/><path fill="#cfe2f3" d="m671.0172 453.25717l0 0c0.7741089 -5.253235 5.6601562 -8.884308 10.913391 -8.1102295l0 0c2.522705 0.37173462 4.7943726 1.7303467 6.3153687 3.777008c1.520935 2.0466614 2.166626 4.613678 1.7948608 7.136383l0 0c-0.77404785 5.253235 -5.6601562 8.884308 -10.913391 8.1102295l0 0c-5.253235 -0.77407837 -8.884277 -5.6601562 -8.1102295 -10.913391z" fill-rule="evenodd"/><path stroke="#000000" stroke-width="1.0" stroke-linejoin="round" stroke-linecap="butt" d="m671.0172 453.25717l0 0c0.7741089 -5.253235 5.6601562 -8.884308 10.913391 -8.1102295l0 0c2.522705 0.37173462 4.7943726 1.7303467 6.3153687 3.777008c1.520935 2.0466614 2.166626 4.613678 1.7948608 7.136383l0 0c-0.77404785 5.253235 -5.6601562 8.884308 -10.913391 8.1102295l0 0c-5.253235 -0.77407837 -8.884277 -5.6601562 -8.1102295 -10.913391z" fill-rule="evenodd"/><path fill="#cfe2f3" d="m695.3727 496.7743l0 0c0 -5.30542 4.3009033 -9.606323 9.606323 -9.606323l0 0c2.5477295 0 4.99115 1.012085 6.7926636 2.8136292c1.8015747 1.8015442 2.8136597 4.244934 2.8136597 6.792694l0 0c0 5.3053894 -4.3009033 9.606293 -9.606323 9.606293l0 0c-5.30542 0 -9.606323 -4.3009033 -9.606323 -9.606293z" fill-rule="evenodd"/><path stroke="#000000" stroke-width="1.0" stroke-linejoin="round" stroke-linecap="butt" d="m695.3727 496.7743l0 0c0 -5.30542 4.3009033 -9.606323 9.606323 -9.606323l0 0c2.5477295 0 4.99115 1.012085 6.7926636 2.8136292c1.8015747 1.8015442 2.8136597 4.244934 2.8136597 6.792694l0 0c0 5.3053894 -4.3009033 9.606293 -9.606323 9.606293l0 0c-5.30542 0 -9.606323 -4.3009033 -9.606323 -9.606293z" fill-rule="evenodd"/><path fill="#cfe2f3" d="m751.2362 496.7743l0 0c0 -5.30542 4.3009033 -9.606323 9.606323 -9.606323l0 0c2.5477295 0 4.99115 1.012085 6.7926636 2.8136292c1.8015137 1.8015442 2.8135986 4.244934 2.8135986 6.792694l0 0c0 5.3053894 -4.3008423 9.606293 -9.606262 9.606293l0 0c-5.30542 0 -9.606323 -4.3009033 -9.606323 -9.606293z" fill-rule="evenodd"/><path stroke="#000000" stroke-width="1.0" stroke-linejoin="round" stroke-linecap="butt" d="m751.2362 496.7743l0 0c0 -5.30542 4.3009033 -9.606323 9.606323 -9.606323l0 0c2.5477295 0 4.99115 1.012085 6.7926636 2.8136292c1.8015137 1.8015442 2.8135986 4.244934 2.8135986 6.792694l0 0c0 5.3053894 -4.3008423 9.606293 -9.606262 9.606293l0 0c-5.30542 0 -9.606323 -4.3009033 -9.606323 -9.606293z" fill-rule="evenodd"/><path fill="#cfe2f3" d="m779.85065 462.0998l0 0c-1.3133545 -5.140167 1.7889404 -10.371735 6.929077 -11.685028l0 0c2.4684448 -0.63067627 5.0862427 -0.25497437 7.277649 1.0444946c2.1913452 1.299469 3.7767334 3.4162292 4.4074097 5.884613l0 0c1.3132935 5.140167 -1.7889404 10.371735 -6.929138 11.685059l0 0c-5.1401367 1.3132935 -10.371704 -1.788971 -11.684998 -6.929138z" fill-rule="evenodd"/><path stroke="#000000" stroke-width="1.0" stroke-linejoin="round" stroke-linecap="butt" d="m779.85065 462.0998l0 0c-1.3133545 -5.140167 1.7889404 -10.371735 6.929077 -11.685028l0 0c2.4684448 -0.63067627 5.0862427 -0.25497437 7.277649 1.0444946c2.1913452 1.299469 3.7767334 3.4162292 4.4074097 5.884613l0 0c1.3132935 5.140167 -1.7889404 10.371735 -6.929138 11.685059l0 0c-5.1401367 1.3132935 -10.371704 -1.788971 -11.684998 -6.929138z" fill-rule="evenodd"/><path fill="#cfe2f3" d="m751.2362 422.50262l0 0c0 -5.30542 4.3009033 -9.606293 9.606323 -9.606293l0 0c2.5477295 0 4.99115 1.012085 6.7926636 2.8135986c1.8015137 1.8015442 2.8135986 4.244934 2.8135986 6.792694l0 0c0 5.30542 -4.3008423 9.606293 -9.606262 9.606293l0 0c-5.30542 0 -9.606323 -4.300873 -9.606323 -9.606293z" fill-rule="evenodd"/><path stroke="#000000" stroke-width="1.0" stroke-linejoin="round" stroke-linecap="butt" d="m751.2362 422.50262l0 0c0 -5.30542 4.3009033 -9.606293 9.606323 -9.606293l0 0c2.5477295 0 4.99115 1.012085 6.7926636 2.8135986c1.8015137 1.8015442 2.8135986 4.244934 2.8135986 6.792694l0 0c0 5.30542 -4.3008423 9.606293 -9.606262 9.606293l0 0c-5.30542 0 -9.606323 -4.300873 -9.606323 -9.606293z" fill-rule="evenodd"/><path fill="#000000" fill-opacity="0.0" d="m698.18634 489.9816l-11.937012 -27.590546" fill-rule="evenodd"/><path stroke="#000000" stroke-width="1.0" stroke-linejoin="round" stroke-linecap="butt" d="m698.18634 489.9816l-11.937012 -27.590546" fill-rule="evenodd"/><path fill="#000000" fill-opacity="0.0" d="m714.5853 496.7743l36.661377 0" fill-rule="evenodd"/><path stroke="#000000" stroke-width="1.0" stroke-linejoin="round" stroke-linecap="butt" d="m714.5853 496.7743l36.661377 0" fill-rule="evenodd"/><path fill="#000000" fill-opacity="0.0" d="m767.6352 489.9816l16.629944 -21.984253" fill-rule="evenodd"/><path stroke="#000000" stroke-width="1.0" stroke-linejoin="round" stroke-linecap="butt" d="m767.6352 489.9816l16.629944 -21.984253" fill-rule="evenodd"/><path fill="#000000" fill-opacity="0.0" d="m786.7797 450.41476l-19.149597 -21.13388" fill-rule="evenodd"/><path stroke="#000000" stroke-width="1.0" stroke-linejoin="round" stroke-linecap="butt" d="m786.7797 450.41476l-19.149597 -21.13388" fill-rule="evenodd"/><path fill="#cfe2f3" d="m732.07874 312.0l0 0c0 -31.815094 36.536377 -57.606293 81.60632 -57.606293l0 0c45.069885 0 81.60626 25.791199 81.60626 57.606293l0 0c0 31.815094 -36.536377 57.606293 -81.60626 57.606293l0 0c-45.069946 0 -81.60632 -25.791199 -81.60632 -57.606293z" fill-rule="evenodd"/><path stroke="#000000" stroke-width="1.0" stroke-linejoin="round" stroke-linecap="butt" d="m732.07874 312.0l0 0c0 -31.815094 36.536377 -57.606293 81.60632 -57.606293l0 0c45.069885 0 81.60626 25.791199 81.60626 57.606293l0 0c0 31.815094 -36.536377 57.606293 -81.60626 57.606293l0 0c-45.069946 0 -81.60632 -25.791199 -81.60632 -57.606293z" fill-rule="evenodd"/><path fill="#cfe2f3" d="m765.05786 282.7514l0 0c-0.41748047 -5.288025 3.5308838 -9.913239 8.818909 -10.330719l0 0c2.5394287 -0.20046997 5.0544434 0.61602783 6.9918213 2.2698975c1.9373779 1.6538696 3.1384277 4.009613 3.3388672 6.549011l0 0c0.41748047 5.288025 -3.5308838 9.913239 -8.818848 10.330719l0 0c-5.288025 0.41748047 -9.913269 -3.5308838 -10.3307495 -8.818909z" fill-rule="evenodd"/><path stroke="#000000" stroke-width="1.0" stroke-linejoin="round" stroke-linecap="butt" d="m765.05786 282.7514l0 0c-0.41748047 -5.288025 3.5308838 -9.913239 8.818909 -10.330719l0 0c2.5394287 -0.20046997 5.0544434 0.61602783 6.9918213 2.2698975c1.9373779 1.6538696 3.1384277 4.009613 3.3388672 6.549011l0 0c0.41748047 5.288025 -3.5308838 9.913239 -8.818848 10.330719l0 0c-5.288025 0.41748047 -9.913269 -3.5308838 -10.3307495 -8.818909z" fill-rule="evenodd"/><path fill="#cfe2f3" d="m747.3517 318.58298l0 0c0 -5.30542 4.3009033 -9.606323 9.606323 -9.606323l0 0c2.5477295 0 4.99115 1.0121155 6.7926636 2.8136292c1.8015137 1.8015442 2.8136597 4.244934 2.8136597 6.792694l0 0c0 5.3053894 -4.3009033 9.606293 -9.606323 9.606293l0 0c-5.30542 0 -9.606323 -4.3009033 -9.606323 -9.606293z" fill-rule="evenodd"/><path stroke="#000000" stroke-width="1.0" stroke-linejoin="round" stroke-linecap="butt" d="m747.3517 318.58298l0 0c0 -5.30542 4.3009033 -9.606323 9.606323 -9.606323l0 0c2.5477295 0 4.99115 1.0121155 6.7926636 2.8136292c1.8015137 1.8015442 2.8136597 4.244934 2.8136597 6.792694l0 0c0 5.3053894 -4.3009033 9.606293 -9.606323 9.606293l0 0c-5.30542 0 -9.606323 -4.3009033 -9.606323 -9.606293z" fill-rule="evenodd"/><path fill="#cfe2f3" d="m785.9488 350.12598l0 0c0 -5.30542 4.3009033 -9.606293 9.606323 -9.606293l0 0c2.5477295 0 4.99115 1.012085 6.7926636 2.8136292c1.8015747 1.8015137 2.8136597 4.244934 2.8136597 6.7926636l0 0c0 5.30542 -4.3009033 9.606293 -9.606323 9.606293l0 0c-5.30542 0 -9.606323 -4.300873 -9.606323 -9.606293z" fill-rule="evenodd"/><path stroke="#000000" stroke-width="1.0" stroke-linejoin="round" stroke-linecap="butt" d="m785.9488 350.12598l0 0c0 -5.30542 4.3009033 -9.606293 9.606323 -9.606293l0 0c2.5477295 0 4.99115 1.012085 6.7926636 2.8136292c1.8015747 1.8015137 2.8136597 4.244934 2.8136597 6.7926636l0 0c0 5.30542 -4.3009033 9.606293 -9.606323 9.606293l0 0c-5.30542 0 -9.606323 -4.300873 -9.606323 -9.606293z" fill-rule="evenodd"/><path fill="#cfe2f3" d="m838.58673 347.33896l0 0c-1.5742188 -5.0618896 1.2531128 -10.441528 6.3150024 -12.015747l0 0c2.4307861 -0.75598145 5.062317 -0.51535034 7.315735 0.6689148c2.253357 1.1842957 3.9440308 3.2152405 4.700012 5.6460266l0 0c1.5742188 5.0618896 -1.2531128 10.441528 -6.3150024 12.015747l0 0c-5.0618896 1.5742493 -10.441528 -1.2530823 -12.015747 -6.3149414z" fill-rule="evenodd"/><path stroke="#000000" stroke-width="1.0" stroke-linejoin="round" stroke-linecap="butt" d="m838.58673 347.33896l0 0c-1.5742188 -5.0618896 1.2531128 -10.441528 6.3150024 -12.015747l0 0c2.4307861 -0.75598145 5.062317 -0.51535034 7.315735 0.6689148c2.253357 1.1842957 3.9440308 3.2152405 4.700012 5.6460266l0 0c1.5742188 5.0618896 -1.2531128 10.441528 -6.3150024 12.015747l0 0c-5.0618896 1.5742493 -10.441528 -1.2530823 -12.015747 -6.3149414z" fill-rule="evenodd"/><path fill="#cfe2f3" d="m864.86615 303.1659l0 0c0.49572754 -5.2793274 5.177368 -9.157166 10.456665 -8.661407l0 0c2.5352173 0.23806763 4.8720093 1.4734802 6.496338 3.4344788c1.6243286 1.961029 2.4031372 4.486969 2.1651 7.0221863l0 0c-0.49578857 5.2793274 -5.177368 9.157196 -10.456726 8.661438l0 0c-5.279297 -0.49575806 -9.157166 -5.177368 -8.661377 -10.456696z" fill-rule="evenodd"/><path stroke="#000000" stroke-width="1.0" stroke-linejoin="round" stroke-linecap="butt" d="m864.86615 303.1659l0 0c0.49572754 -5.2793274 5.177368 -9.157166 10.456665 -8.661407l0 0c2.5352173 0.23806763 4.8720093 1.4734802 6.496338 3.4344788c1.6243286 1.961029 2.4031372 4.486969 2.1651 7.0221863l0 0c-0.49578857 5.2793274 -5.177368 9.157196 -10.456726 8.661438l0 0c-5.279297 -0.49575806 -9.157166 -5.177368 -8.661377 -10.456696z" fill-rule="evenodd"/><path fill="#cfe2f3" d="m814.4698 271.8714l0 0c0 -5.30542 4.3009033 -9.606293 9.606323 -9.606293l0 0c2.5477295 0 4.99115 1.012085 6.7926636 2.8135986c1.8015747 1.8015442 2.8136597 4.244934 2.8136597 6.792694l0 0c0 5.30542 -4.3009033 9.606293 -9.606323 9.606293l0 0c-5.30542 0 -9.606323 -4.300873 -9.606323 -9.606293z" fill-rule="evenodd"/><path stroke="#000000" stroke-width="1.0" stroke-linejoin="round" stroke-linecap="butt" d="m814.4698 271.8714l0 0c0 -5.30542 4.3009033 -9.606293 9.606323 -9.606293l0 0c2.5477295 0 4.99115 1.012085 6.7926636 2.8135986c1.8015747 1.8015442 2.8136597 4.244934 2.8136597 6.792694l0 0c0 5.30542 -4.3009033 9.606293 -9.606323 9.606293l0 0c-5.30542 0 -9.606323 -4.300873 -9.606323 -9.606293z" fill-rule="evenodd"/><path fill="#000000" fill-opacity="0.0" d="m814.4698 271.8714l-30.2677 9.354309" fill-rule="evenodd"/><path stroke="#000000" stroke-width="1.0" stroke-linejoin="round" stroke-linecap="butt" d="m814.4698 271.8714l-30.2677 9.354309" fill-rule="evenodd"/><path fill="#000000" fill-opacity="0.0" d="m788.76245 343.3333l-25.007874 -17.952759" fill-rule="evenodd"/><path stroke="#000000" stroke-width="1.0" stroke-linejoin="round" stroke-linecap="butt" d="m788.76245 343.3333l-25.007874 -17.952759" fill-rule="evenodd"/><path fill="#000000" fill-opacity="0.0" d="m805.16144 350.12598l33.417297 -2.771637" fill-rule="evenodd"/><path stroke="#000000" stroke-width="1.0" stroke-linejoin="round" stroke-linecap="butt" d="m805.16144 350.12598l33.417297 -2.771637" fill-rule="evenodd"/><path fill="#000000" fill-opacity="0.0" d="m856.9175 341.63815l16.598389 -28.0" fill-rule="evenodd"/><path stroke="#000000" stroke-width="1.0" stroke-linejoin="round" stroke-linecap="butt" d="m856.9175 341.63815l16.598389 -28.0" fill-rule="evenodd"/><path fill="#000000" fill-opacity="0.0" d="m868.30066 296.66953l-34.614197 -24.787384" fill-rule="evenodd"/><path stroke="#000000" stroke-width="1.0" stroke-linejoin="round" stroke-linecap="butt" d="m868.30066 296.66953l-34.614197 -24.787384" fill-rule="evenodd"/><path fill="#000000" fill-opacity="0.0" d="m751.2362 422.50262l-36.69287 3.433075" fill-rule="evenodd"/><path stroke="#000000" stroke-width="1.0" stroke-linejoin="round" stroke-linecap="butt" d="m751.2362 422.50262l-36.69287 3.433075" fill-rule="evenodd"/><path fill="#cfe2f3" d="m317.17847 144.81102l230.39374 0l0 76.7874l-230.39374 0z" fill-rule="evenodd"/><path stroke="#000000" stroke-width="1.0" stroke-linejoin="round" stroke-linecap="butt" d="m317.17847 144.81102l230.39374 0l0 76.7874l-230.39374 0z" fill-rule="evenodd"/><path fill="#cfe2f3" d="m324.1286 200.7454l34.551178 0l0 13.448822l-34.551178 0z" fill-rule="evenodd"/><path stroke="#000000" stroke-width="1.0" stroke-linejoin="round" stroke-linecap="butt" d="m324.1286 200.7454l34.551178 0l0 13.448822l-34.551178 0z" fill-rule="evenodd"/><path fill="#cfe2f3" d="m366.67978 200.7454l34.551178 0l0 13.448822l-34.551178 0z" fill-rule="evenodd"/><path stroke="#000000" stroke-width="1.0" stroke-linejoin="round" stroke-linecap="butt" d="m366.67978 200.7454l34.551178 0l0 13.448822l-34.551178 0z" fill-rule="evenodd"/><path fill="#cfe2f3" d="m409.23096 200.7454l34.55121 0l0 13.448822l-34.55121 0z" fill-rule="evenodd"/><path stroke="#000000" stroke-width="1.0" stroke-linejoin="round" stroke-linecap="butt" d="m409.23096 200.7454l34.55121 0l0 13.448822l-34.55121 0z" fill-rule="evenodd"/><path fill="#cfe2f3" d="m451.78217 200.7454l34.551178 0l0 13.448822l-34.551178 0z" fill-rule="evenodd"/><path stroke="#000000" stroke-width="1.0" stroke-linejoin="round" stroke-linecap="butt" d="m451.78217 200.7454l34.551178 0l0 13.448822l-34.551178 0z" fill-rule="evenodd"/><path fill="#cfe2f3" d="m324.1286 152.88977l163.21262 0l0 28.7874l-163.21262 0z" fill-rule="evenodd"/><path stroke="#000000" stroke-width="1.0" stroke-linejoin="round" stroke-linecap="butt" d="m324.1286 152.88977l163.21262 0l0 28.7874l-163.21262 0z" fill-rule="evenodd"/><path fill="#000000" d="m376.34546 169.85971l2.625 -0.25q0.234375 1.3125 0.953125 1.9375q0.734375 0.609375 1.96875 0.609375q1.296875 0 1.953125 -0.546875q0.671875 -0.546875 0.671875 -1.28125q0 -0.484375 -0.28125 -0.8125q-0.28125 -0.328125 -0.96875 -0.578125q-0.484375 -0.15625 -2.171875 -0.578125q-2.15625 -0.546875 -3.03125 -1.328125q-1.234375 -1.09375 -1.234375 -2.6875q0 -1.015625 0.578125 -1.90625q0.578125 -0.890625 1.65625 -1.34375q1.09375 -0.46875 2.640625 -0.46875q2.515625 0 3.78125 1.109375q1.28125 1.09375 1.34375 2.9375l-2.703125 0.109375q-0.171875 -1.03125 -0.75 -1.46875q-0.5625 -0.453125 -1.703125 -0.453125q-1.171875 0 -1.84375 0.46875q-0.421875 0.3125 -0.421875 0.84375q0 0.46875 0.40625 0.796875q0.5 0.4375 2.46875 0.90625q1.96875 0.453125 2.90625 0.953125q0.953125 0.5 1.484375 1.359375q0.53125 0.859375 0.53125 2.125q0 1.15625 -0.640625 2.15625q-0.640625 1.0 -1.8125 1.484375q-1.15625 0.484375 -2.890625 0.484375q-2.53125 0 -3.890625 -1.171875q-1.359375 -1.171875 -1.625 -3.40625zm14.912323 4.34375l-3.0625 -9.671875l2.484375 0l1.8125 6.34375l1.671875 -6.34375l2.46875 0l1.609375 6.34375l1.859375 -6.34375l2.515625 0l-3.109375 9.671875l-2.453125 0l-1.671875 -6.21875l-1.640625 6.21875l-2.484375 0zm12.714539 -10.984375l0 -2.375l2.5625 0l0 2.375l-2.5625 0zm0 10.984375l0 -9.671875l2.5625 0l0 9.671875l-2.5625 0zm9.620819 -9.671875l0 2.03125l-1.75 0l0 3.90625q0 1.1875 0.046875 1.390625q0.046875 0.1875 0.21875 0.3125q0.1875 0.125 0.4375 0.125q0.359375 0 1.03125 -0.25l0.21875 2.0q-0.890625 0.375 -2.015625 0.375q-0.703125 0 -1.265625 -0.234375q-0.546875 -0.234375 -0.8125 -0.59375q-0.25 -0.375 -0.34375 -1.0q-0.09375 -0.453125 -0.09375 -1.8125l0 -4.21875l-1.171875 0l0 -2.03125l1.171875 0l0 -1.921875l2.578125 -1.5l0 3.421875l1.75 0zm10.212677 2.859375l-2.53125 0.453125q-0.125 -0.75 -0.578125 -1.125q-0.453125 -0.390625 -1.171875 -0.390625q-0.953125 0 -1.53125 0.65625q-0.5625 0.65625 -0.5625 2.203125q0 1.734375 0.578125 2.4375q0.578125 0.703125 1.546875 0.703125q0.734375 0 1.203125 -0.40625q0.46875 -0.421875 0.65625 -1.421875l2.515625 0.421875q-0.390625 1.734375 -1.515625 2.625q-1.109375 0.875 -2.96875 0.875q-2.125 0 -3.390625 -1.328125q-1.25 -1.34375 -1.25 -3.71875q0 -2.390625 1.265625 -3.71875q1.265625 -1.34375 3.421875 -1.34375q1.765625 0 2.796875 0.765625q1.046875 0.75 1.515625 2.3125zm4.485077 -6.546875l0 4.921875q1.234375 -1.453125 2.953125 -1.453125q0.890625 0 1.59375 0.328125q0.71875 0.328125 1.078125 0.84375q0.359375 0.5 0.484375 1.125q0.140625 0.609375 0.140625 1.921875l0 5.671875l-2.5625 0l0 -5.109375q0 -1.515625 -0.15625 -1.921875q-0.140625 -0.421875 -0.515625 -0.65625q-0.359375 -0.25 -0.90625 -0.25q-0.640625 0 -1.140625 0.3125q-0.5 0.3125 -0.734375 0.9375q-0.234375 0.625 -0.234375 1.84375l0 4.84375l-2.5625 0l0 -13.359375l2.5625 0z" fill-rule="nonzero"/><path fill="#000000" fill-opacity="0.0" d="m181.1365 316.45142l160.25198 -102.267715" fill-rule="evenodd"/><path stroke="#000000" stroke-width="1.0" stroke-linejoin="round" stroke-linecap="butt" d="m181.1365 316.45142l160.25198 -102.267715" fill-rule="evenodd"/><path fill="#000000" fill-opacity="0.0" d="m206.91339 337.2861l134.48819 -123.086624" fill-rule="evenodd"/><path stroke="#000000" stroke-width="1.0" stroke-linejoin="round" stroke-linecap="butt" d="m206.91339 337.2861l134.48819 -123.086624" fill-rule="evenodd"/><path fill="#000000" fill-opacity="0.0" d="m471.01834 502.36224l-87.055115 -288.15747" fill-rule="evenodd"/><path stroke="#000000" stroke-width="1.0" stroke-linejoin="round" stroke-linecap="butt" d="m471.01834 502.36224l-87.055115 -288.15747" fill-rule="evenodd"/><path fill="#000000" fill-opacity="0.0" d="m512.49084 492.75357l-128.53543 -278.55118" fill-rule="evenodd"/><path stroke="#000000" stroke-width="1.0" stroke-linejoin="round" stroke-linecap="butt" d="m512.49084 492.75357l-128.53543 -278.55118" fill-rule="evenodd"/><path fill="#000000" fill-opacity="0.0" d="m674.79425 446.94183l-248.28348 -232.75592" fill-rule="evenodd"/><path stroke="#000000" stroke-width="1.0" stroke-linejoin="round" stroke-linecap="butt" d="m674.79425 446.94183l-248.28348 -232.75592" fill-rule="evenodd"/><path fill="#000000" fill-opacity="0.0" d="m697.5749 420.74945l-271.05508 -206.55116" fill-rule="evenodd"/><path stroke="#000000" stroke-width="1.0" stroke-linejoin="round" stroke-linecap="butt" d="m697.5749 420.74945l-271.05508 -206.55116" fill-rule="evenodd"/><path fill="#000000" fill-opacity="0.0" d="m750.16534 311.79028l-281.1024 -97.60629" fill-rule="evenodd"/><path stroke="#000000" stroke-width="1.0" stroke-linejoin="round" stroke-linecap="butt" d="m750.16534 311.79028l-281.1024 -97.60629" fill-rule="evenodd"/><path fill="#000000" fill-opacity="0.0" d="m765.05786 282.7514l-295.99997 -68.566925" fill-rule="evenodd"/><path stroke="#000000" stroke-width="1.0" stroke-linejoin="round" stroke-linecap="butt" d="m765.05786 282.7514l-295.99997 -68.566925" fill-rule="evenodd"/><path fill="#cfe2f3" d="m70.86089 596.7874l8.440941 -27.653564l8.4409485 27.653564z" fill-rule="evenodd"/><path stroke="#000000" stroke-width="1.0" stroke-linejoin="round" stroke-linecap="butt" d="m70.86089 596.7874l8.440941 -27.653564l8.4409485 27.653564z" fill-rule="evenodd"/><path fill="#cfe2f3" d="m105.42126 630.0341l8.4409485 -27.653564l8.440941 27.653564z" fill-rule="evenodd"/><path stroke="#000000" stroke-width="1.0" stroke-linejoin="round" stroke-linecap="butt" d="m105.42126 630.0341l8.4409485 -27.653564l8.440941 27.653564z" fill-rule="evenodd"/><path fill="#cfe2f3" d="m139.98163 646.20734l8.4409485 -27.653503l8.440933 27.653503z" fill-rule="evenodd"/><path stroke="#000000" stroke-width="1.0" stroke-linejoin="round" stroke-linecap="butt" d="m139.98163 646.20734l8.4409485 -27.653503l8.440933 27.653503z" fill-rule="evenodd"/></g></svg>